<svg xmlns="http://www.w3.org/2000/svg" viewBox="0 -54 1132 1132" class="icon" version="1.1">
  <path d="M118.736 498.23a449.21 449.21 0 10898.421 0 449.21 449.21 0 10-898.421 0z" fill="#4766AC"/>
  <path d="M974.667 689.044c-71.8 152.636-227.002 258.397-406.72 258.397-247.929 0-449.211-201.282-449.211-449.21a446.97 446.97 0 0179.366-254.892 447.066 447.066 0 00-42.478 190.813c0 247.928 201.282 449.21 449.21 449.21 153.3 0 288.757-76.956 369.833-194.318z" fill="#3F5A98"/>
  <path d="M974.667 689.044c-81.076 117.362-216.534 194.319-369.832 194.319-247.929 0-449.211-201.283-449.211-449.211a447.066 447.066 0 0142.478-190.813 452.524 452.524 0 0136.37-45.948 448.914 448.914 0 00-3.566 14.54 447.861 447.861 0 00-26.443 152.107c0 247.916 201.282 449.21 449.21 449.21 130.374 0 247.857-55.669 329.945-144.504a442.85 442.85 0 01-8.95 20.3z" fill="#32539D"/>
  <path d="M983.618 668.744C901.53 757.58 784.047 813.25 653.673 813.25c-247.928 0-449.21-201.295-449.21-449.211 0-53.38 9.324-104.593 26.443-152.106a449.825 449.825 0 00-11.156 99.822c0 247.928 201.295 449.21 449.211 449.21 132.265 0 251.254-57.283 333.487-148.371a446.476 446.476 0 01-18.83 56.151z" fill="#3A5AA3"/>
  <path d="M299.297 835.765c-66.427-40.165-91.1-60.26-128.47-128.494a436.947 436.947 0 01-53.742-210.583c0-90.57 27.468-174.779 74.523-244.736 15.023-22.335 51.803-45.911 70.548-65.078-16.07 21.877-50.007 48.032-62.115 72.764-50.164 102.485-64.921 226.93-32.635 351.16a530.938 530.938 0 0031.563 88.618c31.624 68.717 46.49 90.461 100.328 136.349zM615.93 452.367s14.18-19.179 47.092-1.59c0 0 11.975-1 22.564-13.24 0 0 23.769.47 45.887 37.418 0 0 28.371 3.59-6.879-35.033s-63.957-24.503-61.837-40.743c2.12-16.24 26.877-12.01 34.948-32.346 8.072-20.323-18.287-41.791-27.696-54.97-9.42-13.18 0-25.035 30.118-21.264 30.118 3.759 37.816-8.493 27.66-23.263-10.156-14.781 20.564-14.625 38.647-4.53 18.07 10.084 77.438 12.228 86.847-.758 9.42-12.987 33.889-58.55 50.839-15.252 16.938 43.297 62.91 26.42 72.68 149.938 9.758 123.518 23.961 136.854 6.312 178.923-17.649 42.056-46.176-19.276-59.705-30.744-13.54-11.47-17.95 2.06-17.36 29.418.59 27.347-3.819 84.414-18.528 68.536-14.71-15.89-43.876-119.326-69.74-96.581s-37.925 86.281-73.223 73.632c-35.297-12.65-12.806-42.695-42.453-53.044-29.648-10.36-59.983-10.987-63.32-34.346-3.325-23.371-24.961-6.686-20.588-36.514 4.36-29.817-7.987-38.214-2.265-43.647z" fill="#6C8CC7"/>
  <path d="M932.78 655.384s-1.169 12.144 1.457 10.95c2.615-1.18 2.807-1.48 4.337-.144 1.53 1.338 1.542-3.614 3.88-3.578 2.337.024-.085 2.988 1.843 3.084 1.927.097 4.686-20.672 8.541-31.394 0 0 4.698-2.771.723-11.084-3.976-8.312 8.794-20.853 2.53-23.021-6.265-2.169-3.373 11.336-8.674 16.155-5.3 4.818-1.205 10.12-1.566 14.697s.77 5.879-6.3 6.915c-7.073 1.036-9.482 13.565-6.771 17.42zM375.688 282.046s-15.336-24.082 14.576-38.201c29.913-14.108 8.433-23.625 9.975-29.456 1.53-5.818 23.625-15.492 37.587-8.432 13.95 7.06 17.48 6.902 30.528 6.131 13.034-.758 42.514 22.42 16.576 24.709-25.937 2.301-18.42 21.624-32.226 27.612-13.806 5.975-22.516 5.674-41.333 6.204-18.806.542-6.686 9.288-18.348 15.42-11.661 6.144-12.12 1.687-17.335-3.987zm38.08 107.194s-31.117-15.733-35.96 15.095c-4.843 30.829-4.47 56.477 13.324 52.188 17.793-4.3 32.647-.494 50.32-26.383 17.673-25.9 22.95-32.033 45.9-9.577 22.95 22.456 32.418 51.67 53.392 22.311 20.974-29.37 16.685-6.228 37.057-24.89 20.372-18.648 39.791 8.94 72.005 11.24 32.214 2.302 7.361-2.915.615-26.684 0 0 11.806-7.288 5.517-25.238-6.288-17.95 11.42-6.277 12.204-7.252.783-.988 30.54-3.458 16.89-21.697-13.65-18.252-22.384-3.699-33.985-34.43-11.601-30.745 10.577-66.994-28.672-63.706 0 0-35.19 34.768-68.825 19.18-33.647-15.578-71.415-7.687-85.799 15.709-14.384 23.395-11.505 18.408-13.999 41.803-2.493 23.395-22.359 36.37-46.754 32.382-24.383-3.987 6.023 28.456 6.77 29.95z" fill="#6C8CC7"/>
  <path d="M375.157 488.785s41.322-10.071 58.356-30.202c17.035-20.13 20.71-13.938 26.781-36.815 0 0 14.469-14.24 40.587 38.02 0 0 28.768 36.19 50.103-10.553 0 0 7.903-14.143 27.082 19.179 0 0 10.794 10.3 19.66-11.264 0 0 13.662 6.95 1.434 37.394s9.18 25.528 22.3 28.9c13.107 3.362-3 25.095 17.974 44.19 20.974 19.106 43.273 6.276 54.091 9.89 10.818 3.626-65.223 57.368-62.97 92.955 2.24 35.575 19.107 46.622-26.961 62.73-46.068 16.106-13.854 20.961-15.445 29.912-1.602 8.963-16.456 29.949-40.02 28.84-23.564-1.096-22.576 17.312-36.442-10.18-13.866-27.49-42.876-44.453-16.42-82.81 26.455-38.358-22.468-34.335-15.192-64.248 7.289-29.912-26.913-4.072-46.562-16.347-19.648-12.264-71.836-7.06-68.849-71.476 3-64.415-26.358-17.649 10.493-58.115M217.895 233.99s66.813-81.498 83.595-83.305c0 0-11.686 20.082-11.686 23.37 0 3.302-11.42 7.627-2.494 19.216 0 0 4.169 2.951 5.229 8.734 1.06 5.795 3.024 7.855 16.866-4.325 0 0 8.734.843 9.228 10.553.494 9.722 2.156 7.072 4.806 9.722 2.663 2.65-9.613 14.288-36.418 15.866 0 0-17.058 1.747-26.961 17.457-9.89 15.709-9.264 17.203-8.24 16.89 1.024-.314 45.32-38.647 58.512-27.564 0 0 4.554 2.662-9.975 11.938 0 0-5.963 5.337 9.975 13.662 15.95 8.324-10.131 17.745-9.758 23.275.374 5.53 10.939 12.625 2.072 15.95-8.854 3.337-32.973-1.626-35.792.88-2.819 2.517-1.108 2.867-3.77 5.035-2.663 2.157-7.445 2.506-4.578 11.288 2.867 8.77 4.397 21.866-30.238 13.023 0 0 9.661-12.469 4.566-13.794-5.108-1.337-7.94-.554-15.553 16.722 0 0-24.07 31.454-42.72 41.755 0 0-6.998 14.757-7.444 22.166 0 0-4.964 3.71-5.65-5.156-.699-8.854-4.144-12.252-6.976-8.035-2.83 4.204-3.903 17.311-1.951 22.961 1.951 5.663 8.228 14.192-6.891 41.683 0 0-10.011 19.733 7.662 33.877s60.018 85.775 46.116 97.761c-13.902 11.987 12.987 6.53 19.348 11.795 6.36 5.264 3.457 8.722 13.986 11.312 10.517 2.59 7.602 25.527 34.117 39.37 26.504 13.842-4.686 34.394 1.832 47.272s9.071 37.973-8 46.984c-17.058 9.01-.12 30.684 8 38.731 8.12 8.06 47.236 57.922 41.285 58.296-5.94.385-85.004-31.696-125-129.856-39.997-98.171-53.38-134.409-55.585-174.802-2.205-40.406 1.12-151.408 28.49-194.452 27.36-43.056 12.108-44.466 59.995-106.255zm438.899 534.275s-15.613 23.335-.35 24.962c15.252 1.614 14.18 2.867 17.589-9.168 3.41-12.023 7.18-17.228 16.516-24.588s7.18-20.468 6.289-29.263c-.904-8.806-5.144-16.878-8.228-6.107-3.084 10.77 1.229 14.54-10.084 16.697-11.312 2.156-10.95-1.253-13.649 7-2.686 8.263-10.228 8.083-8.613 13.648 1.614 5.566.53 6.819.53 6.819z" fill="#6C8CC7"/>
  <path d="M528.384 29.058c-19.468 0-35.274 218.762-35.274 488.207 0 269.456 15.806 488.207 35.274 488.207-4.867-122.05-8.818-298.792-8.818-488.207 0-189.416 3.951-366.147 8.818-488.207z" fill="#DEE5F6"/>
  <path d="M18.697 487.171c0 28.95 237.797 52.453 530.697 52.453s530.697-23.504 530.697-52.453c-132.674 7.24-324.8 13.12-530.697 13.12s-398.023-5.88-530.697-13.12z" fill="#DEE5F6"/>
  <path d="M484.424 10.252c-139.252 0-252.313 224.087-252.313 500.098 0 276.022 113.061 500.11 252.313 500.11C364.267 987.605 266.71 771.384 266.71 510.35c0-261.024 97.557-477.245 217.714-500.098z" fill="#DEE5F6"/>
  <path d="M30.31 527.77c0 139.264 235.966 252.325 526.613 252.325S1083.55 667.034 1083.55 527.77c-24.07 120.157-251.76 217.714-526.626 217.714S54.38 647.927 30.31 527.77z" fill="#DEE5F6"/>
  <path d="M477.389 0C213.908 0 0 223.136 0 497.965 0 772.807 213.908 995.93 477.389 995.93 236.159 981.908 40.322 763.603 40.322 497.965S236.158 14.023 477.389 0zm166.02 5.12c263.47 0 477.377 223.136 477.377 497.965 0 274.842-213.908 497.965-477.377 497.965 241.219-14.01 437.056-232.315 437.056-497.965 0-265.637-195.837-483.942-437.056-497.965z" fill="#DEE5F6"/>
  <path d="M595.438 19.66c139.264 0 252.326 224.088 252.326 500.098 0 276.023-113.062 500.11-252.326 500.11 120.157-22.853 217.714-239.074 217.714-500.11 0-261.023-97.557-477.244-217.714-500.097z" fill="#DEE5F6"/>
  <path d="M28.178 440.465c0-139.264 238.749-252.326 532.83-252.326 294.08 0 532.829 113.062 532.829 252.326-24.36-120.17-254.723-217.727-532.83-217.727S52.537 320.295 28.178 440.465z" fill="#DEE5F6"/>
</svg>
