<svg xmlns="http://www.w3.org/2000/svg" viewBox="0 -33.5 1091 1091" class="icon" version="1.1">
  <path d="M287.085 203.325c87.581 50.563 158.686 173.723 158.686 274.852 0 101.132-71.105 142.185-158.686 91.619-87.582-50.566-158.687-173.724-158.687-274.856 0-101.129 71.105-142.181 158.687-91.615zM888.823 453.52c111.448 64.344 201.93 221.063 201.93 349.753s-90.482 180.931-201.93 116.588C777.373 855.514 686.89 698.795 686.89 570.105c0-128.69 90.483-180.931 201.933-116.585z" fill="#6D8ACA"/>
  <path d="M408.817 97.626C476.003 136.414 530.55 230.89 530.55 308.47s-54.547 109.072-121.733 70.283c-67.186-38.791-121.732-133.269-121.732-210.848 0-77.58 54.546-109.072 121.732-70.28z" fill="#6D8ACA"/>
  <path d="M686.89 32.482c131.426 75.88 238.13 260.691 238.13 412.448 0 151.76-106.704 213.362-238.13 137.482-131.425-75.877-238.126-260.69-238.126-412.447S555.465-43.397 686.89 32.482z" fill="#6D8ACA"/>
  <path d="M925.02 571.634l-637.935-368.31v366.472l637.934 368.311V571.634z" fill="#6D8ACA"/>
  <path d="M1040.162 867.23l-128.399 74.129v61.143l128.399-74.13V867.23zM522.113 13.798L386.73 91.96v35.728l135.383-78.163V13.798zM327.231 86.796l-132.873 76.716v83.418l132.873-76.715V86.796zM173.538 193.724L51.733 264.05v57.05l121.805-70.325v-57.05z" fill="#6D8ACA"/>
  <path d="M158.686 277.454c87.582 50.566 158.69 173.724 158.69 274.855 0 101.13-71.108 142.182-158.69 91.616C71.105 593.362 0 470.205 0 369.072s71.105-142.184 158.686-91.618zm601.739 250.195c111.447 64.347 201.93 221.066 201.93 349.756 0 128.69-90.483 180.931-201.93 116.585-111.45-64.344-201.933-221.063-201.933-349.754 0-128.69 90.482-180.93 201.933-116.587z" fill="#4762AF"/>
  <path d="M280.419 171.755c67.188 38.788 121.732 133.268 121.732 210.848 0 77.58-54.544 109.072-121.732 70.28-67.186-38.788-121.733-133.266-121.733-210.845s54.547-109.072 121.733-70.283z" fill="#4762AF"/>
  <path d="M558.492 106.614c131.428 75.877 238.13 260.691 238.13 412.448 0 151.756-106.702 213.362-238.13 137.482-131.425-75.88-238.126-260.69-238.126-412.447 0-151.76 106.7-213.362 238.126-137.483z" fill="#4762AF"/>
  <path d="M796.621 645.765L158.686 277.454v366.471l637.935 368.312V645.765z" fill="#4762AF"/>
</svg>
